# xmcd
#
# Track frame offsets:
#	182
#	14090
#	28417
#	42192
#	56110
#	69957
#	84305
#	97842
#	111492
#	123300
#	135447
#	148680
#	161495
#	172462
#
# Disc length: 2446 seconds
# Revision: 2
# Processed by: cddbd v1.5.2PL0 Copyright (c) Steve Scherf et al.
# Submitted via: dBpowerAMP V12.0
#
DISCID=c7098c0e
DTITLE=Various Artist - Battle of the Blues, Vol. 2
DYEAR=1959
DGENRE=R&B
TTITLE0=Roy Brown - Hard Luck Blues
TTITLE1=Roy Brown - Dreaming Blues
TTITLE2=Roy Brown - Long About Sundown
TTITLE3=Roy Brown - Double Crossin' Woman
TTITLE4=Roy Brown - Swwet Peach
TTITLE5=Roy Brown - Wrong Woman Blues
TTITLE6=Roy Brown - Brown Angel
TTITLE7=Wynonie Harris - Man, Have I Got Troubles
TTITLE8=Wynonie Harris - I'll Never Give Up
TTITLE9=Wynonie Harris - Here Comes The Night
TTITLE10=Wynonie Harris - Luscious Woman
TTITLE11=Wynonie Harris - Drinking Blues
TTITLE12=Wynonie Harris - Nearer My God To Thee
TTITLE13=Wynonie Harris - Tremblin'
EXTD=
EXTT0=
EXTT1=
EXTT2=
EXTT3=
EXTT4=
EXTT5=
EXTT6=
EXTT7=
EXTT8=
EXTT9=
EXTT10=
EXTT11=
EXTT12=
EXTT13=
PLAYORDER=
